<?xml version="1.0" standalone="no"?>
<!DOCTYPE svg PUBLIC "-//W3C//DTD SVG 20010904//EN"
 "http://www.w3.org/TR/2001/REC-SVG-20010904/DTD/svg10.dtd">
<svg version="1.0" xmlns="http://www.w3.org/2000/svg"
 width="540.000000pt" height="540.000000pt" viewBox="0 0 540.000000 540.000000"
 preserveAspectRatio="xMidYMid meet">
<metadata>
Created by potrace 1.11, written by Peter Selinger 2001-2013
</metadata>
<g transform="translate(0.000000,540.000000) scale(0.100000,-0.100000)"
fill="#000000" stroke="none">
<path d="M2189 4973 c-1 -5 -3 -236 -3 -515 l-2 -508 513 0 c403 0 513 3 514
13 0 16 0 702 0 880 l-1 137 -510 0 c-280 0 -511 -3 -511 -7z"/>
<path d="M2203 3270 c-18 -5 -19 -34 -19 -822 l0 -817 246 0 c135 0 250 0 256
0 15 -1 9 -129 -11 -266 -30 -208 -125 -456 -246 -646 -29 -46 -56 -86 -59
-89 -3 -3 -21 -25 -40 -50 -19 -25 -39 -51 -45 -58 -5 -7 -29 -32 -52 -55 -24
-23 -43 -45 -43 -49 0 -10 128 22 215 54 112 41 228 106 331 187 100 77 151
129 224 228 28 37 55 74 61 81 21 26 107 210 128 272 56 174 63 248 63 615 -1
160 -1 544 -1 855 l-1 565 -494 0 c-272 0 -503 -2 -513 -5z"/>
</g>
</svg>
